<svg width="20" height="20" viewBox="0 0 20 20" fill="none" xmlns="http://www.w3.org/2000/svg">
<path d="M10.1664 9.83327L8.99138 11.0083C8.34138 11.6583 8.34138 12.7166 8.99138 13.3666C9.64138 14.0166 10.6997 14.0166 11.3497 13.3666L13.1998 11.5166C14.4998 10.2166 14.4998 8.10828 13.1998 6.79995C11.8998 5.49995 9.79139 5.49995 8.48306 6.79995L6.46641 8.8166C5.34974 9.93327 5.34974 11.7416 6.46641 12.8583" stroke="#8D8D8D" stroke-width="1.5" stroke-linecap="round" stroke-linejoin="round"/>
<path d="M10.0003 18.3334C14.6027 18.3334 18.3337 14.6025 18.3337 10.0001C18.3337 5.39771 14.6027 1.66675 10.0003 1.66675C5.39795 1.66675 1.66699 5.39771 1.66699 10.0001C1.66699 14.6025 5.39795 18.3334 10.0003 18.3334Z" stroke="#8D8D8D" stroke-width="1.5" stroke-linecap="round" stroke-linejoin="round"/>
</svg>
