<svg width="24" height="25" viewBox="0 0 24 25" fill="none" xmlns="http://www.w3.org/2000/svg">
<path d="M8 2.5V5.5" stroke="#2C2C73" stroke-width="1.5" stroke-miterlimit="10" stroke-linecap="round" stroke-linejoin="round"/>
<path d="M16 2.5V5.5" stroke="#2C2C73" stroke-width="1.5" stroke-miterlimit="10" stroke-linecap="round" stroke-linejoin="round"/>
<path d="M3.5 9.59009H20.5" stroke="#2C2C73" stroke-width="1.5" stroke-miterlimit="10" stroke-linecap="round" stroke-linejoin="round"/>
<path d="M19.21 16.27L15.6701 19.81C15.5301 19.95 15.4 20.21 15.37 20.4L15.18 21.75C15.11 22.24 15.45 22.5801 15.94 22.5101L17.29 22.32C17.48 22.29 17.75 22.16 17.88 22.02L21.4201 18.4801C22.0301 17.8701 22.3201 17.1601 21.4201 16.2601C20.5301 15.3701 19.82 15.66 19.21 16.27Z" stroke="#2C2C73" stroke-width="1.5" stroke-miterlimit="10" stroke-linecap="round" stroke-linejoin="round"/>
<path d="M18.7002 16.78C19.0002 17.86 19.8402 18.7 20.9202 19" stroke="#2C2C73" stroke-width="1.5" stroke-miterlimit="10" stroke-linecap="round" stroke-linejoin="round"/>
<path d="M12 22.5H8C4.5 22.5 3 20.5 3 17.5V9C3 6 4.5 4 8 4H16C19.5 4 21 6 21 9V12.5" stroke="#2C2C73" stroke-width="1.5" stroke-miterlimit="10" stroke-linecap="round" stroke-linejoin="round"/>
<path d="M11.9955 14.2H12.0045" stroke="#2C2C73" stroke-width="2" stroke-linecap="round" stroke-linejoin="round"/>
<path d="M8.29431 14.2H8.30329" stroke="#2C2C73" stroke-width="2" stroke-linecap="round" stroke-linejoin="round"/>
<path d="M8.29431 17.2H8.30329" stroke="#2C2C73" stroke-width="2" stroke-linecap="round" stroke-linejoin="round"/>
</svg>
