<svg width="23" height="23" viewBox="0 0 23 23" fill="none" xmlns="http://www.w3.org/2000/svg">
<path d="M11.5738 2C6.28375 2 2 6.29333 2 11.5833C2 16.8733 6.28375 21.1667 11.5738 21.1667C16.8733 21.1667 21.1667 16.8733 21.1667 11.5833C21.1667 6.29333 16.8733 2 11.5738 2ZM8.22917 7.75C9.02458 7.75 9.66667 8.39208 9.66667 9.1875C9.66667 9.98292 9.02458 10.625 8.22917 10.625C7.43375 10.625 6.79167 9.98292 6.79167 9.1875C6.79167 8.39208 7.43375 7.75 8.22917 7.75ZM11.5833 17.3333C9.39833 17.3333 7.53917 15.7425 6.79167 13.5H16.375C15.6275 15.7425 13.7683 17.3333 11.5833 17.3333ZM14.9375 10.625C14.1421 10.625 13.5 9.98292 13.5 9.1875C13.5 8.39208 14.1421 7.75 14.9375 7.75C15.7329 7.75 16.375 8.39208 16.375 9.1875C16.375 9.98292 15.7329 10.625 14.9375 10.625Z" fill="#2C2C73"/>
</svg>
