<svg width="24" height="24" viewBox="0 0 24 24" fill="none" xmlns="http://www.w3.org/2000/svg">
<g clip-path="url(#clip0_6331_4713)">
<path d="M22.4348 4.67466H20.6878C20.9182 4.30997 21.0703 3.90061 21.1137 3.46767C21.2522 2.08406 20.5235 0.843749 19.283 0.293858C18.1427 -0.211595 16.8613 -0.00496993 15.9385 0.831936L13.7326 2.83116C13.303 2.36128 12.6854 2.06597 12 2.06597C11.3134 2.06597 10.6948 2.36222 10.2651 2.83355L8.05636 0.831702C7.13213 -0.00520426 5.85122 -0.211032 4.71145 0.294139C3.47123 0.844077 2.74242 2.08481 2.88136 3.46837C2.92481 3.90098 3.07678 4.31016 3.30717 4.67466H1.5652C0.700734 4.67466 0 5.37544 0 6.23986V8.58769C0 9.01987 0.350391 9.37031 0.782625 9.37031H23.2174C23.6496 9.37031 24 9.01992 24 8.58769V6.23986C24 5.37544 23.2993 4.67466 22.4348 4.67466ZM9.65217 4.4138V4.67466H5.97047C4.99772 4.67466 4.23216 3.76781 4.47511 2.75503C4.58213 2.30901 4.90406 1.92881 5.32045 1.73634C5.89223 1.47206 6.52561 1.55691 7.00584 1.99158L9.65283 4.39073C9.65269 4.39847 9.65217 4.40606 9.65217 4.4138ZM19.5607 3.25987C19.5023 4.0733 18.7676 4.67475 17.9521 4.67475H14.3478V4.41389C14.3478 4.40466 14.3473 4.39551 14.3472 4.38628L16.9531 2.0242C17.3541 1.66078 17.9152 1.49114 18.4338 1.64583C19.178 1.86783 19.6151 2.50073 19.5607 3.25987ZM1.5652 10.9355V22.4138C1.5652 23.2783 2.26594 23.979 3.13041 23.979H10.4347V10.9355H1.5652ZM13.5652 10.9355V23.979H20.8695C21.734 23.979 22.4347 23.2783 22.4347 22.4138V10.9355H13.5652Z" fill="#8D8D8D"/>
</g>
<defs>
<clipPath id="clip0_6331_4713">
<rect width="24" height="24" fill="white"/>
</clipPath>
</defs>
</svg>
