<svg width="50" height="49" viewBox="0 0 50 49" fill="none" xmlns="http://www.w3.org/2000/svg">
<rect x="1" y="0.5" width="48" height="48" rx="3.5" fill="white" stroke="#E3E3E3"/>
<path fill-rule="evenodd" clip-rule="evenodd" d="M18.1878 10H28.2177L36.7185 18.8606V36.0945C36.7185 38.2534 34.9719 40 32.8204 40H18.1878C16.0288 40 14.2822 38.2534 14.2822 36.0945V13.9055C14.2822 11.7466 16.0288 10 18.1878 10Z" fill="#E5252A"/>
<path fill-rule="evenodd" clip-rule="evenodd" d="M28.21 10V18.7931H36.7182L28.21 10Z" fill="black"/>
<path d="M18.6221 32.3838V26.9041H20.9534C21.5306 26.9041 21.9879 27.0615 22.3327 27.3838C22.6776 27.6987 22.85 28.126 22.85 28.6582C22.85 29.1904 22.6776 29.6177 22.3327 29.9325C21.9879 30.2549 21.5306 30.4123 20.9534 30.4123H20.0239V32.3838H18.6221ZM20.0239 29.2204H20.796C21.0059 29.2204 21.1708 29.1754 21.2833 29.0705C21.3957 28.9731 21.4557 28.8381 21.4557 28.6582C21.4557 28.4783 21.3957 28.3434 21.2833 28.2459C21.1708 28.141 21.0059 28.096 20.796 28.096H20.0239V29.2204ZM23.4272 32.3838V26.9041H25.3687C25.751 26.9041 26.1108 26.9565 26.4481 27.069C26.7855 27.1814 27.0928 27.3389 27.3627 27.5562C27.6326 27.7661 27.8499 28.051 28.0074 28.4108C28.1573 28.7706 28.2398 29.1829 28.2398 29.6477C28.2398 30.105 28.1573 30.5173 28.0074 30.8771C27.8499 31.2369 27.6326 31.5217 27.3627 31.7316C27.0928 31.949 26.7855 32.1064 26.4481 32.2189C26.1108 32.3313 25.751 32.3838 25.3687 32.3838H23.4272ZM24.799 31.1919H25.2038C25.4212 31.1919 25.6236 31.1695 25.811 31.117C25.9909 31.0645 26.1633 30.982 26.3282 30.8696C26.4856 30.7572 26.6131 30.5997 26.703 30.3898C26.793 30.1799 26.838 29.9325 26.838 29.6477C26.838 29.3553 26.793 29.108 26.703 28.8981C26.6131 28.6882 26.4856 28.5308 26.3282 28.4183C26.1633 28.3059 25.9909 28.2234 25.811 28.1709C25.6236 28.1185 25.4212 28.096 25.2038 28.096H24.799V31.1919ZM28.9444 32.3838V26.9041H32.8425V28.096H30.3462V28.973H32.3402V30.1574H30.3462V32.3838H28.9444Z" fill="white"/>
</svg>
