<svg width="30" height="30" viewBox="0 0 30 30" fill="none" xmlns="http://www.w3.org/2000/svg">
<circle cx="15" cy="15" r="15" fill="#2C2C73"/>
<g clip-path="url(#clip0_6189_11635)">
<path d="M22.5872 11.1628L21.2366 12.5134C21.0989 12.6511 20.8763 12.6511 20.7386 12.5134L17.4866 9.26147C17.3489 9.12378 17.3489 8.90112 17.4866 8.76343L18.8372 7.41284C19.385 6.86499 20.2757 6.86499 20.8265 7.41284L22.5872 9.17358C23.138 9.72144 23.138 10.6121 22.5872 11.1628ZM16.3265 9.92358L8.63309 17.6169L8.012 21.1765C7.92704 21.657 8.34599 22.073 8.82645 21.991L12.386 21.3669L20.0794 13.6736C20.2171 13.5359 20.2171 13.3132 20.0794 13.1755L16.8274 9.92358C16.6868 9.78589 16.4642 9.78589 16.3265 9.92358ZM11.636 16.9578C11.4749 16.7966 11.4749 16.5388 11.636 16.3777L16.1477 11.866C16.3089 11.7048 16.5667 11.7048 16.7278 11.866C16.889 12.0271 16.889 12.2849 16.7278 12.446L12.2161 16.9578C12.055 17.1189 11.7972 17.1189 11.636 16.9578ZM10.5784 19.4216H11.9847V20.4851L10.095 20.8162L9.18388 19.905L9.51493 18.0154H10.5784V19.4216Z" fill="white"/>
</g>
<defs>
<clipPath id="clip0_6189_11635">
<rect width="15" height="15" fill="white" transform="translate(8 7)"/>
</clipPath>
</defs>
</svg>
